<svg id="visual" viewBox="0 0 960 300" width="960" height="300" xmlns="http://www.w3.org/2000/svg" xmlns:xlink="http://www.w3.org/1999/xlink" version="1.1"><path d="M0 46L22.8 44.5C45.7 43 91.3 40 137 38C182.7 36 228.3 35 274 36C319.7 37 365.3 40 411.2 41.5C457 43 503 43 548.8 45C594.7 47 640.3 51 686 50C731.7 49 777.3 43 823 44.5C868.7 46 914.3 55 937.2 59.5L960 64L960 0L937.2 0C914.3 0 868.7 0 823 0C777.3 0 731.7 0 686 0C640.3 0 594.7 0 548.8 0C503 0 457 0 411.2 0C365.3 0 319.7 0 274 0C228.3 0 182.7 0 137 0C91.3 0 45.7 0 22.8 0L0 0Z" fill="#001a64"></path><path d="M0 121L22.8 113.5C45.7 106 91.3 91 137 91.5C182.7 92 228.3 108 274 115C319.7 122 365.3 120 411.2 111C457 102 503 86 548.8 89C594.7 92 640.3 114 686 114C731.7 114 777.3 92 823 83C868.7 74 914.3 78 937.2 80L960 82L960 62L937.2 57.5C914.3 53 868.7 44 823 42.5C777.3 41 731.7 47 686 48C640.3 49 594.7 45 548.8 43C503 41 457 41 411.2 39.5C365.3 38 319.7 35 274 34C228.3 33 182.7 34 137 36C91.3 38 45.7 41 22.8 42.5L0 44Z" fill="#031346"></path><path d="M0 175L22.8 168C45.7 161 91.3 147 137 143.5C182.7 140 228.3 147 274 153.5C319.7 160 365.3 166 411.2 159C457 152 503 132 548.8 128.5C594.7 125 640.3 138 686 140C731.7 142 777.3 133 823 129C868.7 125 914.3 126 937.2 126.5L960 127L960 80L937.2 78C914.3 76 868.7 72 823 81C777.3 90 731.7 112 686 112C640.3 112 594.7 90 548.8 87C503 84 457 100 411.2 109C365.3 118 319.7 120 274 113C228.3 106 182.7 90 137 89.5C91.3 89 45.7 104 22.8 111.5L0 119Z" fill="#070529"></path><path d="M0 271L22.8 269.5C45.7 268 91.3 265 137 261.5C182.7 258 228.3 254 274 253C319.7 252 365.3 254 411.2 240.5C457 227 503 198 548.8 199.5C594.7 201 640.3 233 686 246.5C731.7 260 777.3 255 823 244.5C868.7 234 914.3 218 937.2 210L960 202L960 125L937.2 124.5C914.3 124 868.7 123 823 127C777.3 131 731.7 140 686 138C640.3 136 594.7 123 548.8 126.5C503 130 457 150 411.2 157C365.3 164 319.7 158 274 151.5C228.3 145 182.7 138 137 141.5C91.3 145 45.7 159 22.8 166L0 173Z" fill="#080424"></path><path d="M0 301L22.8 301C45.7 301 91.3 301 137 301C182.7 301 228.3 301 274 301C319.7 301 365.3 301 411.2 301C457 301 503 301 548.8 301C594.7 301 640.3 301 686 301C731.7 301 777.3 301 823 301C868.7 301 914.3 301 937.2 301L960 301L960 200L937.2 208C914.3 216 868.7 232 823 242.5C777.3 253 731.7 258 686 244.5C640.3 231 594.7 199 548.8 197.5C503 196 457 225 411.2 238.5C365.3 252 319.7 250 274 251C228.3 252 182.7 256 137 259.5C91.3 263 45.7 266 22.8 267.5L0 269Z" fill="#080320"></path></svg>